# xmcd CD database file
#
# Track frame offsets:
#	150
#	23984
#	47258
#	70766
#	91425
#	108419
#	136195
#	163307
#	182505
#	204619
#	225120
#	245792
#
# Disc length: 3455 seconds
#
# Revision: 0
# Processed by: cddbd v1.5.1PL0 Copyright (c) Steve Scherf et al.
# Submitted via: CDex 1.51
#
DISCID=990d7d0c
DTITLE=Noel Friedline Quintet - Carry Me Home
DYEAR=2003
DGENRE=Jazz
TTITLE0=The Lord's Prayer
TTITLE1=You are the Way
TTITLE2=A Mighty Fortress is Our God
TTITLE3=He Lives
TTITLE4=Joyful, Joyful We Adore Thee
TTITLE5=Swing Low, Sweet Chariot
TTITLE6=Nature Boy
TTITLE7=Jesus Loves Me/Someday My Prince Will Come
TTITLE8=O Sacred Head, Now Wounded
TTITLE9=All Hail the Power of Jesus Name
TTITLE10=Amazing Grace
TTITLE11=Golden Slumbers
EXTD=YEAR: 2003
EXTT0=
EXTT1=
EXTT2=
EXTT3=
EXTT4=
EXTT5=
EXTT6=
EXTT7=
EXTT8=
EXTT9=
EXTT10=
EXTT11=
PLAYORDER=
